<?xml version="1.0" encoding="UTF-8"?>
<svg width="90px" height="90px" viewBox="0 0 90 90" version="1.1" xmlns="http://www.w3.org/2000/svg" xmlns:xlink="http://www.w3.org/1999/xlink">
    <!-- Generator: Sketch 45.2 (43514) - http://www.bohemiancoding.com/sketch -->
    <title>Cart Icon</title>
    <desc>Created with Sketch.</desc>
    <defs>
        <linearGradient x1="50%" y1="0.167293981%" x2="50%" y2="100%" id="linearGradient-1">
            <stop stop-color="#F3323D" offset="0.0279017857%"></stop>
            <stop stop-color="#D62A33" offset="100%"></stop>
        </linearGradient>
    </defs>
    <g id="Pages" stroke="none" stroke-width="1" fill="none" fill-rule="evenodd">
        <g id="Pricing" transform="translate(-100.000000, -977.000000)">
            <g id="Group" transform="translate(100.000000, 977.000000)">
                <g id="Cart-Icon">
                    <circle id="Oval" fill="url(#linearGradient-1)" cx="44.6962377" cy="44.6962377" r="44.6962377"></circle>
                    <path d="M36.9230769,59.6356275 C36.9230769,60.5237899 36.5985609,61.2923804 35.9495192,61.9414221 C35.3004775,62.5904638 34.531887,62.9149798 33.6437247,62.9149798 C32.7555624,62.9149798 31.9869719,62.5904638 31.3379302,61.9414221 C30.6888885,61.2923804 30.3643725,60.5237899 30.3643725,59.6356275 C30.3643725,58.7474652 30.6888885,57.9788747 31.3379302,57.329833 C31.9869719,56.6807913 32.7555624,56.3562753 33.6437247,56.3562753 C34.531887,56.3562753 35.3004775,56.6807913 35.9495192,57.329833 C36.5985609,57.9788747 36.9230769,58.7474652 36.9230769,59.6356275 Z M59.8785425,59.6356275 C59.8785425,60.5237899 59.5540265,61.2923804 58.9049848,61.9414221 C58.2559431,62.5904638 57.4873526,62.9149798 56.5991903,62.9149798 C55.7110279,62.9149798 54.9424375,62.5904638 54.2933957,61.9414221 C53.644354,61.2923804 53.3198381,60.5237899 53.3198381,59.6356275 C53.3198381,58.7474652 53.644354,57.9788747 54.2933957,57.329833 C54.9424375,56.6807913 55.7110279,56.3562753 56.5991903,56.3562753 C57.4873526,56.3562753 58.2559431,56.6807913 58.9049848,57.329833 C59.5540265,57.9788747 59.8785425,58.7474652 59.8785425,59.6356275 Z M63.1578947,31.7611336 L63.1578947,44.8785425 C63.1578947,45.2884636 63.0169865,45.6514091 62.7351657,45.9673899 C62.453345,46.2833708 62.1074793,46.4669785 61.6975582,46.5182186 L34.9503416,49.6438512 C35.1723822,50.6686539 35.2834008,51.2664465 35.2834008,51.437247 C35.2834008,51.7105277 35.0784433,52.2570809 34.6685223,53.0769231 L58.2388664,53.0769231 C58.6829476,53.0769231 59.0672428,53.2391811 59.3917637,53.5637019 C59.7162845,53.8882228 59.8785425,54.272518 59.8785425,54.7165992 C59.8785425,55.1606804 59.7162845,55.5449756 59.3917637,55.8694965 C59.0672428,56.1940173 58.6829476,56.3562753 58.2388664,56.3562753 L32.0040486,56.3562753 C31.5599674,56.3562753 31.1756722,56.1940173 30.8511513,55.8694965 C30.5266305,55.5449756 30.3643725,55.1606804 30.3643725,54.7165992 C30.3643725,54.5287187 30.4326916,54.259712 30.569332,53.9095711 C30.7059723,53.5594302 30.8426107,53.251994 30.979251,52.9872533 C31.1158914,52.7225126 31.2994991,52.3809168 31.5300797,51.9624557 C31.7606603,51.5439946 31.8930287,51.2920677 31.9271888,51.2066675 L27.3924595,30.1214575 L22.1659919,30.1214575 C21.7219107,30.1214575 21.3376155,29.9591995 21.0130946,29.6346786 C20.6885738,29.3101578 20.5263158,28.9258625 20.5263158,28.4817814 C20.5263158,28.0377002 20.6885738,27.653405 21.0130946,27.3288841 C21.3376155,27.0043633 21.7219107,26.8421053 22.1659919,26.8421053 L28.7246964,26.8421053 C28.9979771,26.8421053 29.2413641,26.8976146 29.4548646,27.0086349 C29.6683652,27.1196552 29.8348931,27.2520235 29.9544534,27.4057439 C30.0740138,27.5594643 30.1850324,27.7686917 30.2875127,28.0334324 C30.3899929,28.2981731 30.4583121,28.5202104 30.4924722,28.6995509 C30.5266323,28.8788913 30.5736017,29.1308182 30.6333818,29.4553391 C30.693162,29.7798599 30.7315915,30.0018972 30.7486716,30.1214575 L61.5182186,30.1214575 C61.9622998,30.1214575 62.346595,30.2837155 62.6711159,30.6082363 C62.9956367,30.9327572 63.1578947,31.3170524 63.1578947,31.7611336 Z" fill="#FFFFFF"></path>
                </g>
            </g>
        </g>
    </g>
</svg>