<?xml version="1.0" encoding="UTF-8"?>
<svg width="166px" height="34px" viewBox="0 0 166 34" version="1.1" xmlns="http://www.w3.org/2000/svg" xmlns:xlink="http://www.w3.org/1999/xlink">
    <!-- Generator: Sketch 45.2 (43514) - http://www.bohemiancoding.com/sketch -->
    <title>Social-Icon/All</title>
    <desc>Created with Sketch.</desc>
    <defs></defs>
    <g id="Pages" stroke="none" stroke-width="1" fill="none" fill-rule="evenodd">
        <g id="Pricing" transform="translate(-517.000000, -2015.000000)">
            <g id="Social-Icon/All" transform="translate(517.000000, 2015.000000)">
                <g id="Social-Icon/Facebook" transform="translate(44.000000, 0.000000)">
                    <circle id="Background" fill="#3B5998" cx="17" cy="17" r="17"></circle>
                    <path d="M21.6785818,9.12053586 C21.4073761,9.08035724 20.4732232,9 19.3884005,9 C17.1183085,9 15.561387,10.3861624 15.561387,12.92746 L15.561387,15.1171948 L13,15.1171948 L13,18.0904126 L15.561387,18.0904126 L15.561387,25.7143056 L18.6350514,25.7143056 L18.6350514,18.0904126 L21.1863937,18.0904126 L21.5781352,15.1171948 L18.6350514,15.1171948 L18.6350514,13.218755 C18.6350514,12.3649594 18.8660784,11.7723247 20.101571,11.7723247 L21.6785818,11.7723247 L21.6785818,9.12053586 Z" id="Facebook" fill="#FFFFFF"></path>
                </g>
                <g id="Social-Icon/Twitter">
                    <circle id="Background" fill="#00ACED" cx="17" cy="17" r="17"></circle>
                    <path d="M24.830376,12.5267875 C24.247786,12.7779039 23.6149728,12.9587077 22.9620702,13.0290203 C23.6350621,12.6272341 24.1473395,11.9944208 24.3884112,11.2410717 C23.7656426,11.6127239 23.0625168,11.8839296 22.329257,12.0245548 C21.7366223,11.3917415 20.8928713,11 19.9587184,11 C18.1607252,11 16.7142949,12.456475 16.7142949,14.2444235 C16.7142949,14.4955399 16.7444289,14.7466563 16.7946521,14.987728 C14.1026847,14.8471028 11.7020121,13.561387 10.104912,11.5926346 C9.8236617,12.0747781 9.66294722,12.6272341 9.66294722,13.2299134 C9.66294722,14.3549147 10.2354925,15.3493355 11.1093775,15.9319255 C10.5770108,15.9118362 10.0747781,15.7611664 9.64285791,15.5200947 L9.64285791,15.5602733 C9.64285791,17.1372841 10.7578146,18.4430892 12.2444235,18.7444289 C11.9732178,18.8147415 11.6819228,18.8549201 11.3906278,18.8549201 C11.1796901,18.8549201 10.978797,18.8348308 10.7779039,18.8046968 C11.1897348,20.0904126 12.3850487,21.0245655 13.8113897,21.0546995 C12.696433,21.9285845 11.300226,22.4408619 9.78348308,22.4408619 C9.5122774,22.4408619 9.26116103,22.4308172 9,22.4006832 C10.4363856,23.3247915 12.143977,23.8571582 13.9821488,23.8571582 C19.9486738,23.8571582 23.2131866,18.915188 23.2131866,14.6261204 C23.2131866,14.4854952 23.2131866,14.3448701 23.2031419,14.2042449 C23.8359552,13.7421908 24.3884112,13.1696454 24.830376,12.5267875 Z" id="Twitter" fill="#FFFFFF"></path>
                </g>
                <g id="Social-Icon/LinkedIn" transform="translate(88.000000, 0.000000)">
                    <circle id="Background" fill="#007BB5" cx="17" cy="17" r="17"></circle>
                    <path d="M12.5055845,14.7913004 L9.19084844,14.7913004 L9.19084844,24.7455533 L12.5055845,24.7455533 L12.5055845,14.7913004 Z M12.7165223,11.717636 C12.7064776,10.7433045 12.0033518,10 10.8683058,10 C9.74330446,10 9,10.7433045 9,11.717636 C9,12.6718782 9.71317049,13.435272 10.8281272,13.435272 L10.8482165,13.435272 C12.0033518,13.435272 12.7265669,12.6718782 12.7165223,11.717636 Z M17.6384032,16.2061419 L17.6384032,14.7913004 L14.3337117,14.7913004 C14.3337117,14.7913004 14.3738903,15.7254533 14.3337117,24.7455533 L17.6384032,24.7455533 L17.6384032,19.1908592 C17.6384032,18.8895195 17.6685371,18.5982245 17.7488944,18.3772421 C17.9899661,17.7846075 18.5323774,17.1718835 19.446441,17.1718835 C20.6417549,17.1718835 21.1238984,18.0859471 21.1238984,19.4218862 L21.1238984,24.7455533 L24.4285898,24.7455533 L24.4285898,19.0401893 C24.4285898,15.9866143 22.8013557,14.5602733 20.6216656,14.5602733 C18.8610928,14.5602733 18.0744617,15.5244756 17.6384032,16.2061419 L17.6384032,16.2061419 Z" id="LinkedIn" fill="#FFFFFF"></path>
                </g>
                <g id="Social-Icon/YouTube" transform="translate(132.000000, 0.000000)">
                    <circle id="Background" fill="#BB0000" cx="17" cy="17" r="17"></circle>
                    <path d="M19.4821542,20.4955506 C19.4821542,20.0535858 19.3515736,19.8225587 19.0904126,19.8225587 C18.9397428,19.8225587 18.789073,19.8928713 18.6384032,20.0435411 L18.6384032,23.0669822 C18.789073,23.2176521 18.9397428,23.2879647 19.0904126,23.2879647 C19.3515736,23.2879647 19.4821542,23.0669822 19.4821542,22.6149728 L19.4821542,20.4955506 Z M22.8772475,20.5055953 C22.8772475,20.0535858 22.7265777,19.8225587 22.425238,19.8225587 C22.1238984,19.8225587 21.9732286,20.0535858 21.9732286,20.5055953 L21.9732286,20.9676494 L22.8772475,20.9676494 L22.8772475,20.5055953 Z M13.1741109,18.3158605 L13.1741109,24.0312691 L12.1696454,24.0312691 L12.1696454,18.3158605 L11.1149567,18.3158605 L11.1149567,17.371663 L14.248889,17.371663 L14.248889,18.3158605 L13.1741109,18.3158605 Z M16.0669715,24.0312691 L16.0669715,23.4888577 C15.7053639,23.9006886 15.3638457,24.1015817 15.0424167,24.1015817 C14.7511217,24.1015817 14.540184,23.9810458 14.4598267,23.7299295 C14.4096035,23.5792596 14.3794695,23.3482326 14.3794695,22.9966697 L14.3794695,19.0692096 L15.2734438,19.0692096 L15.2734438,22.725464 C15.2734438,22.9364017 15.2734438,23.0468929 15.2834884,23.0770269 C15.3035778,23.2176521 15.3738903,23.2879647 15.4944262,23.2879647 C15.67523,23.2879647 15.8660784,23.1473395 16.0669715,22.8660892 L16.0669715,19.0692096 L16.9609458,19.0692096 L16.9609458,24.0312691 L16.0669715,24.0312691 Z M20.3761284,22.5446602 C20.3761284,23.0067143 20.3560391,23.3381879 20.2857265,23.5491257 C20.1752353,23.9107333 19.924119,24.1015817 19.5725561,24.1015817 C19.2511271,24.1015817 18.9397428,23.9207779 18.6384032,23.5491257 L18.6384032,24.0312691 L17.7444289,24.0312691 L17.7444289,17.371663 L18.6384032,17.371663 L18.6384032,19.5513531 C18.9296981,19.1897455 19.2410824,19.0089417 19.5725561,19.0089417 C19.924119,19.0089417 20.1752353,19.1997901 20.2857265,19.5714424 C20.3560391,19.7723355 20.3761284,20.1038091 20.3761284,20.5658632 L20.3761284,22.5446602 Z M23.7712218,22.4442136 C23.7712218,22.7355086 23.7712218,22.9364017 23.7511325,23.0268036 C23.7310432,23.2276967 23.6506859,23.4085005 23.5401947,23.569215 C23.299123,23.9207779 22.9274708,24.1015817 22.455372,24.1015817 C21.9832732,24.1015817 21.6317103,23.9308226 21.3705493,23.5893043 C21.1797008,23.3482326 21.0792543,22.956491 21.0792543,22.4241243 L21.0792543,20.6863991 C21.0792543,20.1540323 21.1696562,19.7723355 21.3605046,19.5212191 C21.6216656,19.1797008 21.9732286,19.0089417 22.4352827,19.0089417 C22.8872921,19.0089417 23.2388551,19.1797008 23.5000161,19.5212191 C23.6808199,19.7723355 23.7712218,20.1540323 23.7712218,20.6863991 L23.7712218,21.7209985 L21.9732286,21.7209985 L21.9732286,22.5948835 C21.9732286,23.0569376 22.1238984,23.2879647 22.4352827,23.2879647 C22.6562651,23.2879647 22.7868456,23.1674288 22.8370689,22.9263571 C22.8471135,22.8761338 22.8571582,22.6752407 22.8571582,22.3136331 L23.7712218,22.3136331 L23.7712218,22.4442136 Z M17.6640716,13.2734438 C17.6640716,13.7354979 17.5334911,13.9765696 17.2321515,13.9765696 C16.9408565,13.9765696 16.8002313,13.7354979 16.8002313,13.2734438 L16.8002313,11.1640663 C16.8002313,10.7020121 16.9408565,10.4709851 17.2321515,10.4709851 C17.5334911,10.4709851 17.6640716,10.7020121 17.6640716,11.1640663 L17.6640716,13.2734438 Z M24.8861785,20.8169796 C24.8861785,19.6517996 24.8861785,18.4263517 24.6250174,17.3013504 C24.4442136,16.5078226 23.7913111,15.9252327 23.0178727,15.8348308 C21.1696562,15.6339377 19.3013504,15.6339377 17.4430892,15.6339377 C15.5848281,15.6339377 13.7165223,15.6339377 11.8783505,15.8348308 C11.0948674,15.9252327 10.4520095,16.5078226 10.261161,17.3013504 C10.0100447,18.4263517 10,19.6517996 10,20.8169796 C10,21.9721149 10,23.2076074 10.261161,24.3326088 C10.4419648,25.1261365 11.0948674,25.7087265 11.8683058,25.7890837 C13.7165223,26.0000215 15.5848281,26.0000215 17.4430892,26.0000215 C19.3013504,26.0000215 21.1696562,26.0000215 23.0178727,25.7890837 C23.7913111,25.7087265 24.434169,25.1261365 24.6250174,24.3326088 C24.8761338,23.2076074 24.8861785,21.9721149 24.8861785,20.8169796 Z M14.8616129,8 L14.1785764,10.6417442 L13.4654059,8 L12.4006725,8 C12.6116103,8.6227686 12.8325927,9.25558185 13.0535751,9.87835045 C13.375004,10.8125034 13.5758971,11.5156292 13.666299,12.0078173 L13.666299,14.7299187 L14.6707645,14.7299187 L14.6707645,12.0078173 L15.8861677,8 L14.8616129,8 Z M18.5781352,11.3448701 C18.5781352,10.8125034 18.4877333,10.4207618 18.2968849,10.1696454 C18.0457685,9.82812718 17.6942056,9.65736805 17.2321515,9.65736805 C16.780142,9.65736805 16.4285791,9.82812718 16.1774627,10.1696454 C15.9866143,10.4207618 15.8962124,10.8125034 15.8962124,11.3448701 L15.8962124,13.1026847 C15.8962124,13.6350514 15.9866143,14.0267929 16.1774627,14.2879539 C16.4285791,14.6294722 16.780142,14.8002313 17.2321515,14.8002313 C17.6942056,14.8002313 18.0457685,14.6294722 18.2968849,14.2879539 C18.4877333,14.0368376 18.5781352,13.6350514 18.5781352,13.1026847 L18.5781352,11.3448701 Z M21.9430946,9.71763598 L21.029031,9.71763598 L21.029031,13.5446495 C20.8281379,13.8359445 20.6372895,13.9765696 20.4564857,13.9765696 C20.3359498,13.9765696 20.2656372,13.8962124 20.2455479,13.7555872 C20.2355033,13.7354979 20.2355033,13.6149621 20.2355033,13.4040243 L20.2355033,9.71763598 L19.3214397,9.71763598 L19.3214397,13.67523 C19.3214397,14.0368376 19.3515736,14.2779093 19.4017969,14.4285791 C19.4921988,14.6796955 19.7031366,14.8002313 19.9944316,14.8002313 C20.3259052,14.8002313 20.6674234,14.5993382 21.029031,14.1774627 L21.029031,14.7299187 L21.9430946,14.7299187 L21.9430946,9.71763598 Z" id="YouTube" fill="#FFFFFF"></path>
                </g>
            </g>
        </g>
    </g>
</svg>